%TF.GenerationSoftware,KiCad,Pcbnew,(5.1.10-1-10_14)*%
%TF.CreationDate,2022-10-05T19:31:58+02:00*%
%TF.ProjectId,MTX2959,4d545832-3935-4392-9e6b-696361645f70,1.0*%
%TF.SameCoordinates,Original*%
%TF.FileFunction,Legend,Top*%
%TF.FilePolarity,Positive*%
%FSLAX46Y46*%
G04 Gerber Fmt 4.6, Leading zero omitted, Abs format (unit mm)*
G04 Created by KiCad (PCBNEW (5.1.10-1-10_14)) date 2022-10-05 19:31:58*
%MOMM*%
%LPD*%
G01*
G04 APERTURE LIST*
%ADD10C,0.150000*%
%ADD11C,0.254000*%
%ADD12C,0.120000*%
%ADD13R,1.150000X1.100000*%
%ADD14R,1.250000X0.300000*%
%ADD15R,1.500000X1.000000*%
%ADD16R,1.500000X1.300000*%
%ADD17R,2.000000X2.500000*%
%ADD18R,2.500000X2.500000*%
%ADD19R,2.500000X2.000000*%
%ADD20C,5.000000*%
G04 APERTURE END LIST*
D10*
X138000000Y-90000000D02*
X137000000Y-90800000D01*
X137000000Y-89200000D02*
X138000000Y-90000000D01*
X134000000Y-90000000D02*
X138000000Y-90000000D01*
D11*
%TO.C,J1*%
X113578000Y-90385000D02*
X115089000Y-90385000D01*
X115089000Y-90385000D02*
X115089000Y-89556000D01*
X111572000Y-90385000D02*
X112012000Y-90385000D01*
X111572000Y-90385000D02*
X111572000Y-81615000D01*
X113578000Y-81615000D02*
X115097000Y-81615000D01*
X115097000Y-81615000D02*
X115097000Y-82460000D01*
X111572000Y-81615000D02*
X112012000Y-81615000D01*
D10*
G36*
X115415000Y-81932000D02*
G01*
X115796000Y-82150000D01*
X115415000Y-82404000D01*
X115415000Y-81932000D01*
G37*
D12*
%TO.C,JP1*%
X138600000Y-84000000D02*
X138600000Y-86800000D01*
X137900000Y-87450000D02*
X137300000Y-87450000D01*
X136600000Y-86800000D02*
X136600000Y-84000000D01*
X137300000Y-83350000D02*
X137900000Y-83350000D01*
X138600000Y-86750000D02*
G75*
G02*
X137900000Y-87450000I-700000J0D01*
G01*
X137300000Y-87450000D02*
G75*
G02*
X136600000Y-86750000I0J700000D01*
G01*
X136600000Y-84050000D02*
G75*
G02*
X137300000Y-83350000I700000J0D01*
G01*
X137900000Y-83350000D02*
G75*
G02*
X138600000Y-84050000I0J-700000D01*
G01*
%TO.C,JP2*%
X86100000Y-84550000D02*
X86700000Y-84550000D01*
X85400000Y-88000000D02*
X85400000Y-85200000D01*
X86700000Y-88650000D02*
X86100000Y-88650000D01*
X87400000Y-85200000D02*
X87400000Y-88000000D01*
X86700000Y-84550000D02*
G75*
G02*
X87400000Y-85250000I0J-700000D01*
G01*
X85400000Y-85250000D02*
G75*
G02*
X86100000Y-84550000I700000J0D01*
G01*
X86100000Y-88650000D02*
G75*
G02*
X85400000Y-87950000I0J700000D01*
G01*
X87400000Y-87950000D02*
G75*
G02*
X86700000Y-88650000I-700000J0D01*
G01*
%TO.C,R1*%
X142400000Y-83880000D02*
X141200000Y-83880000D01*
X141200000Y-82120000D02*
X142400000Y-82120000D01*
%TO.C,R2*%
X141200000Y-88120000D02*
X142400000Y-88120000D01*
X142400000Y-89880000D02*
X141200000Y-89880000D01*
%TO.C,R3*%
X81400000Y-88120000D02*
X82600000Y-88120000D01*
X82600000Y-89880000D02*
X81400000Y-89880000D01*
%TO.C,R4*%
X82600000Y-83880000D02*
X81400000Y-83880000D01*
X81400000Y-82120000D02*
X82600000Y-82120000D01*
%TO.C,JP1*%
X137161904Y-88266666D02*
X137161904Y-87771428D01*
X137466666Y-88038095D01*
X137466666Y-87923809D01*
X137504761Y-87847619D01*
X137542857Y-87809523D01*
X137619047Y-87771428D01*
X137809523Y-87771428D01*
X137885714Y-87809523D01*
X137923809Y-87847619D01*
X137961904Y-87923809D01*
X137961904Y-88152380D01*
X137923809Y-88228571D01*
X137885714Y-88266666D01*
X137961904Y-82571428D02*
X137961904Y-83028571D01*
X137961904Y-82800000D02*
X137161904Y-82800000D01*
X137276190Y-82876190D01*
X137352380Y-82952380D01*
X137390476Y-83028571D01*
%TO.C,JP2*%
X86761904Y-83771428D02*
X86761904Y-84228571D01*
X86761904Y-84000000D02*
X85961904Y-84000000D01*
X86076190Y-84076190D01*
X86152380Y-84152380D01*
X86190476Y-84228571D01*
X85961904Y-89466666D02*
X85961904Y-88971428D01*
X86266666Y-89238095D01*
X86266666Y-89123809D01*
X86304761Y-89047619D01*
X86342857Y-89009523D01*
X86419047Y-88971428D01*
X86609523Y-88971428D01*
X86685714Y-89009523D01*
X86723809Y-89047619D01*
X86761904Y-89123809D01*
X86761904Y-89352380D01*
X86723809Y-89428571D01*
X86685714Y-89466666D01*
%TO.C,R1*%
X141704761Y-84961904D02*
X141247619Y-84961904D01*
X141476190Y-84961904D02*
X141476190Y-84161904D01*
X141400000Y-84276190D01*
X141323809Y-84352380D01*
X141247619Y-84390476D01*
X142047619Y-84961904D02*
X142047619Y-84161904D01*
X142123809Y-84657142D02*
X142352380Y-84961904D01*
X142352380Y-84428571D02*
X142047619Y-84733333D01*
%TO.C,R2*%
X141704761Y-87761904D02*
X141247619Y-87761904D01*
X141476190Y-87761904D02*
X141476190Y-86961904D01*
X141400000Y-87076190D01*
X141323809Y-87152380D01*
X141247619Y-87190476D01*
X142047619Y-87761904D02*
X142047619Y-86961904D01*
X142123809Y-87457142D02*
X142352380Y-87761904D01*
X142352380Y-87228571D02*
X142047619Y-87533333D01*
%TO.C,R3*%
X81904761Y-87761904D02*
X81447619Y-87761904D01*
X81676190Y-87761904D02*
X81676190Y-86961904D01*
X81600000Y-87076190D01*
X81523809Y-87152380D01*
X81447619Y-87190476D01*
X82247619Y-87761904D02*
X82247619Y-86961904D01*
X82323809Y-87457142D02*
X82552380Y-87761904D01*
X82552380Y-87228571D02*
X82247619Y-87533333D01*
%TO.C,R4*%
X81904761Y-84961904D02*
X81447619Y-84961904D01*
X81676190Y-84961904D02*
X81676190Y-84161904D01*
X81600000Y-84276190D01*
X81523809Y-84352380D01*
X81447619Y-84390476D01*
X82247619Y-84961904D02*
X82247619Y-84161904D01*
X82323809Y-84657142D02*
X82552380Y-84961904D01*
X82552380Y-84428571D02*
X82247619Y-84733333D01*
%TO.C,J11*%
X125847619Y-84200000D02*
X125771428Y-84161904D01*
X125657142Y-84161904D01*
X125542857Y-84200000D01*
X125466666Y-84276190D01*
X125428571Y-84352380D01*
X125390476Y-84504761D01*
X125390476Y-84619047D01*
X125428571Y-84771428D01*
X125466666Y-84847619D01*
X125542857Y-84923809D01*
X125657142Y-84961904D01*
X125733333Y-84961904D01*
X125847619Y-84923809D01*
X125885714Y-84885714D01*
X125885714Y-84619047D01*
X125733333Y-84619047D01*
X126647619Y-84961904D02*
X126190476Y-84961904D01*
X126419047Y-84961904D02*
X126419047Y-84161904D01*
X126342857Y-84276190D01*
X126266666Y-84352380D01*
X126190476Y-84390476D01*
X127600000Y-84961904D02*
X127600000Y-84428571D01*
X127600000Y-84580952D02*
X127638095Y-84504761D01*
X127676190Y-84466666D01*
X127752380Y-84428571D01*
X127828571Y-84428571D01*
X127980952Y-84428571D02*
X128285714Y-84428571D01*
X128095238Y-84161904D02*
X128095238Y-84847619D01*
X128133333Y-84923809D01*
X128209523Y-84961904D01*
X128285714Y-84961904D01*
%TO.C,J13*%
X119380952Y-84200000D02*
X119304761Y-84161904D01*
X119190476Y-84161904D01*
X119076190Y-84200000D01*
X119000000Y-84276190D01*
X118961904Y-84352380D01*
X118923809Y-84504761D01*
X118923809Y-84619047D01*
X118961904Y-84771428D01*
X119000000Y-84847619D01*
X119076190Y-84923809D01*
X119190476Y-84961904D01*
X119266666Y-84961904D01*
X119380952Y-84923809D01*
X119419047Y-84885714D01*
X119419047Y-84619047D01*
X119266666Y-84619047D01*
X119723809Y-84238095D02*
X119761904Y-84200000D01*
X119838095Y-84161904D01*
X120028571Y-84161904D01*
X120104761Y-84200000D01*
X120142857Y-84238095D01*
X120180952Y-84314285D01*
X120180952Y-84390476D01*
X120142857Y-84504761D01*
X119685714Y-84961904D01*
X120180952Y-84961904D01*
X121095238Y-84923809D02*
X121171428Y-84961904D01*
X121323809Y-84961904D01*
X121400000Y-84923809D01*
X121438095Y-84847619D01*
X121438095Y-84809523D01*
X121400000Y-84733333D01*
X121323809Y-84695238D01*
X121209523Y-84695238D01*
X121133333Y-84657142D01*
X121095238Y-84580952D01*
X121095238Y-84542857D01*
X121133333Y-84466666D01*
X121209523Y-84428571D01*
X121323809Y-84428571D01*
X121400000Y-84466666D01*
X121704761Y-84428571D02*
X121857142Y-84961904D01*
X122009523Y-84580952D01*
X122161904Y-84961904D01*
X122314285Y-84428571D01*
%TO.C,J21*%
X119238095Y-89361904D02*
X119238095Y-88561904D01*
X119504761Y-89133333D01*
X119771428Y-88561904D01*
X119771428Y-89361904D01*
X120571428Y-89361904D02*
X120114285Y-89361904D01*
X120342857Y-89361904D02*
X120342857Y-88561904D01*
X120266666Y-88676190D01*
X120190476Y-88752380D01*
X120114285Y-88790476D01*
X121638095Y-89361904D02*
X121561904Y-89323809D01*
X121523809Y-89285714D01*
X121485714Y-89209523D01*
X121485714Y-88980952D01*
X121523809Y-88904761D01*
X121561904Y-88866666D01*
X121638095Y-88828571D01*
X121752380Y-88828571D01*
X121828571Y-88866666D01*
X121866666Y-88904761D01*
X121904761Y-88980952D01*
X121904761Y-89209523D01*
X121866666Y-89285714D01*
X121828571Y-89323809D01*
X121752380Y-89361904D01*
X121638095Y-89361904D01*
X122247619Y-89361904D02*
X122247619Y-88828571D01*
X122247619Y-88980952D02*
X122285714Y-88904761D01*
X122323809Y-88866666D01*
X122400000Y-88828571D01*
X122476190Y-88828571D01*
%TO.C,J22*%
X124238095Y-89361904D02*
X124238095Y-88561904D01*
X124504761Y-89133333D01*
X124771428Y-88561904D01*
X124771428Y-89361904D01*
X125114285Y-88638095D02*
X125152380Y-88600000D01*
X125228571Y-88561904D01*
X125419047Y-88561904D01*
X125495238Y-88600000D01*
X125533333Y-88638095D01*
X125571428Y-88714285D01*
X125571428Y-88790476D01*
X125533333Y-88904761D01*
X125076190Y-89361904D01*
X125571428Y-89361904D01*
X126866666Y-88828571D02*
X126866666Y-89476190D01*
X126828571Y-89552380D01*
X126790476Y-89590476D01*
X126714285Y-89628571D01*
X126600000Y-89628571D01*
X126523809Y-89590476D01*
X126866666Y-89323809D02*
X126790476Y-89361904D01*
X126638095Y-89361904D01*
X126561904Y-89323809D01*
X126523809Y-89285714D01*
X126485714Y-89209523D01*
X126485714Y-88980952D01*
X126523809Y-88904761D01*
X126561904Y-88866666D01*
X126638095Y-88828571D01*
X126790476Y-88828571D01*
X126866666Y-88866666D01*
X127247619Y-89361904D02*
X127247619Y-88828571D01*
X127247619Y-88980952D02*
X127285714Y-88904761D01*
X127323809Y-88866666D01*
X127400000Y-88828571D01*
X127476190Y-88828571D01*
%TO.C,J32*%
X144514285Y-81761904D02*
X144133333Y-81761904D01*
X144133333Y-80961904D01*
X144666666Y-80961904D02*
X144933333Y-81761904D01*
X145200000Y-80961904D01*
X146457142Y-81761904D02*
X146076190Y-81761904D01*
X146076190Y-80961904D01*
X146723809Y-81342857D02*
X146990476Y-81342857D01*
X147104761Y-81761904D02*
X146723809Y-81761904D01*
X146723809Y-80961904D01*
X147104761Y-80961904D01*
X147447619Y-81761904D02*
X147447619Y-80961904D01*
X147638095Y-80961904D01*
X147752380Y-81000000D01*
X147828571Y-81076190D01*
X147866666Y-81152380D01*
X147904761Y-81304761D01*
X147904761Y-81419047D01*
X147866666Y-81571428D01*
X147828571Y-81647619D01*
X147752380Y-81723809D01*
X147638095Y-81761904D01*
X147447619Y-81761904D01*
%TO.C,J33*%
X144228571Y-85600000D02*
X144152380Y-85561904D01*
X144038095Y-85561904D01*
X143923809Y-85600000D01*
X143847619Y-85676190D01*
X143809523Y-85752380D01*
X143771428Y-85904761D01*
X143771428Y-86019047D01*
X143809523Y-86171428D01*
X143847619Y-86247619D01*
X143923809Y-86323809D01*
X144038095Y-86361904D01*
X144114285Y-86361904D01*
X144228571Y-86323809D01*
X144266666Y-86285714D01*
X144266666Y-86019047D01*
X144114285Y-86019047D01*
X144571428Y-85638095D02*
X144609523Y-85600000D01*
X144685714Y-85561904D01*
X144876190Y-85561904D01*
X144952380Y-85600000D01*
X144990476Y-85638095D01*
X145028571Y-85714285D01*
X145028571Y-85790476D01*
X144990476Y-85904761D01*
X144533333Y-86361904D01*
X145028571Y-86361904D01*
%TO.C,J34*%
X144457142Y-91161904D02*
X144076190Y-91161904D01*
X144076190Y-90361904D01*
X145180952Y-91161904D02*
X144914285Y-90780952D01*
X144723809Y-91161904D02*
X144723809Y-90361904D01*
X145028571Y-90361904D01*
X145104761Y-90400000D01*
X145142857Y-90438095D01*
X145180952Y-90514285D01*
X145180952Y-90628571D01*
X145142857Y-90704761D01*
X145104761Y-90742857D01*
X145028571Y-90780952D01*
X144723809Y-90780952D01*
X146514285Y-91161904D02*
X146133333Y-91161904D01*
X146133333Y-90361904D01*
X146780952Y-90742857D02*
X147047619Y-90742857D01*
X147161904Y-91161904D02*
X146780952Y-91161904D01*
X146780952Y-90361904D01*
X147161904Y-90361904D01*
X147504761Y-91161904D02*
X147504761Y-90361904D01*
X147695238Y-90361904D01*
X147809523Y-90400000D01*
X147885714Y-90476190D01*
X147923809Y-90552380D01*
X147961904Y-90704761D01*
X147961904Y-90819047D01*
X147923809Y-90971428D01*
X147885714Y-91047619D01*
X147809523Y-91123809D01*
X147695238Y-91161904D01*
X147504761Y-91161904D01*
%TO.C,J42*%
X76457142Y-90961904D02*
X76076190Y-90961904D01*
X76076190Y-90161904D01*
X77180952Y-90961904D02*
X76914285Y-90580952D01*
X76723809Y-90961904D02*
X76723809Y-90161904D01*
X77028571Y-90161904D01*
X77104761Y-90200000D01*
X77142857Y-90238095D01*
X77180952Y-90314285D01*
X77180952Y-90428571D01*
X77142857Y-90504761D01*
X77104761Y-90542857D01*
X77028571Y-90580952D01*
X76723809Y-90580952D01*
X78514285Y-90961904D02*
X78133333Y-90961904D01*
X78133333Y-90161904D01*
X78780952Y-90542857D02*
X79047619Y-90542857D01*
X79161904Y-90961904D02*
X78780952Y-90961904D01*
X78780952Y-90161904D01*
X79161904Y-90161904D01*
X79504761Y-90961904D02*
X79504761Y-90161904D01*
X79695238Y-90161904D01*
X79809523Y-90200000D01*
X79885714Y-90276190D01*
X79923809Y-90352380D01*
X79961904Y-90504761D01*
X79961904Y-90619047D01*
X79923809Y-90771428D01*
X79885714Y-90847619D01*
X79809523Y-90923809D01*
X79695238Y-90961904D01*
X79504761Y-90961904D01*
%TO.C,J43*%
X79428571Y-85600000D02*
X79352380Y-85561904D01*
X79238095Y-85561904D01*
X79123809Y-85600000D01*
X79047619Y-85676190D01*
X79009523Y-85752380D01*
X78971428Y-85904761D01*
X78971428Y-86019047D01*
X79009523Y-86171428D01*
X79047619Y-86247619D01*
X79123809Y-86323809D01*
X79238095Y-86361904D01*
X79314285Y-86361904D01*
X79428571Y-86323809D01*
X79466666Y-86285714D01*
X79466666Y-86019047D01*
X79314285Y-86019047D01*
X79771428Y-85638095D02*
X79809523Y-85600000D01*
X79885714Y-85561904D01*
X80076190Y-85561904D01*
X80152380Y-85600000D01*
X80190476Y-85638095D01*
X80228571Y-85714285D01*
X80228571Y-85790476D01*
X80190476Y-85904761D01*
X79733333Y-86361904D01*
X80228571Y-86361904D01*
%TO.C,J44*%
X76514285Y-81761904D02*
X76133333Y-81761904D01*
X76133333Y-80961904D01*
X76666666Y-80961904D02*
X76933333Y-81761904D01*
X77200000Y-80961904D01*
X78457142Y-81761904D02*
X78076190Y-81761904D01*
X78076190Y-80961904D01*
X78723809Y-81342857D02*
X78990476Y-81342857D01*
X79104761Y-81761904D02*
X78723809Y-81761904D01*
X78723809Y-80961904D01*
X79104761Y-80961904D01*
X79447619Y-81761904D02*
X79447619Y-80961904D01*
X79638095Y-80961904D01*
X79752380Y-81000000D01*
X79828571Y-81076190D01*
X79866666Y-81152380D01*
X79904761Y-81304761D01*
X79904761Y-81419047D01*
X79866666Y-81571428D01*
X79828571Y-81647619D01*
X79752380Y-81723809D01*
X79638095Y-81761904D01*
X79447619Y-81761904D01*
%TD*%
%LPC*%
D13*
%TO.C,J1*%
X112795000Y-81500000D03*
X112795000Y-90500000D03*
D14*
X115905000Y-89250000D03*
X115905000Y-88750000D03*
X115905000Y-88250000D03*
X115905000Y-87750000D03*
X115905000Y-87250000D03*
X115905000Y-86750000D03*
X115905000Y-86250000D03*
X115905000Y-85750000D03*
X115905000Y-85250000D03*
X115905000Y-84750000D03*
X115905000Y-84250000D03*
X115905000Y-83750000D03*
X115905000Y-83250000D03*
X115900000Y-82750000D03*
%TD*%
D10*
%TO.C,JP1*%
G36*
X136850000Y-84650000D02*
G01*
X136850000Y-84100000D01*
X136850602Y-84100000D01*
X136850602Y-84075466D01*
X136855412Y-84026635D01*
X136864984Y-83978510D01*
X136879228Y-83931555D01*
X136898005Y-83886222D01*
X136921136Y-83842949D01*
X136948396Y-83802150D01*
X136979524Y-83764221D01*
X137014221Y-83729524D01*
X137052150Y-83698396D01*
X137092949Y-83671136D01*
X137136222Y-83648005D01*
X137181555Y-83629228D01*
X137228510Y-83614984D01*
X137276635Y-83605412D01*
X137325466Y-83600602D01*
X137350000Y-83600602D01*
X137350000Y-83600000D01*
X137850000Y-83600000D01*
X137850000Y-83600602D01*
X137874534Y-83600602D01*
X137923365Y-83605412D01*
X137971490Y-83614984D01*
X138018445Y-83629228D01*
X138063778Y-83648005D01*
X138107051Y-83671136D01*
X138147850Y-83698396D01*
X138185779Y-83729524D01*
X138220476Y-83764221D01*
X138251604Y-83802150D01*
X138278864Y-83842949D01*
X138301995Y-83886222D01*
X138320772Y-83931555D01*
X138335016Y-83978510D01*
X138344588Y-84026635D01*
X138349398Y-84075466D01*
X138349398Y-84100000D01*
X138350000Y-84100000D01*
X138350000Y-84650000D01*
X136850000Y-84650000D01*
G37*
G36*
X138349398Y-86700000D02*
G01*
X138349398Y-86724534D01*
X138344588Y-86773365D01*
X138335016Y-86821490D01*
X138320772Y-86868445D01*
X138301995Y-86913778D01*
X138278864Y-86957051D01*
X138251604Y-86997850D01*
X138220476Y-87035779D01*
X138185779Y-87070476D01*
X138147850Y-87101604D01*
X138107051Y-87128864D01*
X138063778Y-87151995D01*
X138018445Y-87170772D01*
X137971490Y-87185016D01*
X137923365Y-87194588D01*
X137874534Y-87199398D01*
X137850000Y-87199398D01*
X137850000Y-87200000D01*
X137350000Y-87200000D01*
X137350000Y-87199398D01*
X137325466Y-87199398D01*
X137276635Y-87194588D01*
X137228510Y-87185016D01*
X137181555Y-87170772D01*
X137136222Y-87151995D01*
X137092949Y-87128864D01*
X137052150Y-87101604D01*
X137014221Y-87070476D01*
X136979524Y-87035779D01*
X136948396Y-86997850D01*
X136921136Y-86957051D01*
X136898005Y-86913778D01*
X136879228Y-86868445D01*
X136864984Y-86821490D01*
X136855412Y-86773365D01*
X136850602Y-86724534D01*
X136850602Y-86700000D01*
X136850000Y-86700000D01*
X136850000Y-86150000D01*
X138350000Y-86150000D01*
X138350000Y-86700000D01*
X138349398Y-86700000D01*
G37*
D15*
X137600000Y-85400000D03*
%TD*%
%TO.C,JP2*%
X86400000Y-86600000D03*
D10*
G36*
X87149398Y-87900000D02*
G01*
X87149398Y-87924534D01*
X87144588Y-87973365D01*
X87135016Y-88021490D01*
X87120772Y-88068445D01*
X87101995Y-88113778D01*
X87078864Y-88157051D01*
X87051604Y-88197850D01*
X87020476Y-88235779D01*
X86985779Y-88270476D01*
X86947850Y-88301604D01*
X86907051Y-88328864D01*
X86863778Y-88351995D01*
X86818445Y-88370772D01*
X86771490Y-88385016D01*
X86723365Y-88394588D01*
X86674534Y-88399398D01*
X86650000Y-88399398D01*
X86650000Y-88400000D01*
X86150000Y-88400000D01*
X86150000Y-88399398D01*
X86125466Y-88399398D01*
X86076635Y-88394588D01*
X86028510Y-88385016D01*
X85981555Y-88370772D01*
X85936222Y-88351995D01*
X85892949Y-88328864D01*
X85852150Y-88301604D01*
X85814221Y-88270476D01*
X85779524Y-88235779D01*
X85748396Y-88197850D01*
X85721136Y-88157051D01*
X85698005Y-88113778D01*
X85679228Y-88068445D01*
X85664984Y-88021490D01*
X85655412Y-87973365D01*
X85650602Y-87924534D01*
X85650602Y-87900000D01*
X85650000Y-87900000D01*
X85650000Y-87350000D01*
X87150000Y-87350000D01*
X87150000Y-87900000D01*
X87149398Y-87900000D01*
G37*
G36*
X85650000Y-85850000D02*
G01*
X85650000Y-85300000D01*
X85650602Y-85300000D01*
X85650602Y-85275466D01*
X85655412Y-85226635D01*
X85664984Y-85178510D01*
X85679228Y-85131555D01*
X85698005Y-85086222D01*
X85721136Y-85042949D01*
X85748396Y-85002150D01*
X85779524Y-84964221D01*
X85814221Y-84929524D01*
X85852150Y-84898396D01*
X85892949Y-84871136D01*
X85936222Y-84848005D01*
X85981555Y-84829228D01*
X86028510Y-84814984D01*
X86076635Y-84805412D01*
X86125466Y-84800602D01*
X86150000Y-84800602D01*
X86150000Y-84800000D01*
X86650000Y-84800000D01*
X86650000Y-84800602D01*
X86674534Y-84800602D01*
X86723365Y-84805412D01*
X86771490Y-84814984D01*
X86818445Y-84829228D01*
X86863778Y-84848005D01*
X86907051Y-84871136D01*
X86947850Y-84898396D01*
X86985779Y-84929524D01*
X87020476Y-84964221D01*
X87051604Y-85002150D01*
X87078864Y-85042949D01*
X87101995Y-85086222D01*
X87120772Y-85131555D01*
X87135016Y-85178510D01*
X87144588Y-85226635D01*
X87149398Y-85275466D01*
X87149398Y-85300000D01*
X87150000Y-85300000D01*
X87150000Y-85850000D01*
X85650000Y-85850000D01*
G37*
%TD*%
D16*
%TO.C,R1*%
X143150000Y-83000000D03*
X140450000Y-83000000D03*
%TD*%
%TO.C,R2*%
X140450000Y-89000000D03*
X143150000Y-89000000D03*
%TD*%
%TO.C,R3*%
X80650000Y-89000000D03*
X83350000Y-89000000D03*
%TD*%
%TO.C,R4*%
X83350000Y-83000000D03*
X80650000Y-83000000D03*
%TD*%
D17*
%TO.C,J11*%
X125200000Y-82600000D03*
%TD*%
%TO.C,J12*%
X128200000Y-82600000D03*
%TD*%
%TO.C,J13*%
X119200000Y-82600000D03*
%TD*%
%TO.C,J14*%
X122200000Y-82600000D03*
%TD*%
D18*
%TO.C,J21*%
X121400000Y-87000000D03*
%TD*%
%TO.C,J22*%
X125200000Y-87000000D03*
%TD*%
D19*
%TO.C,J32*%
X146800000Y-83000000D03*
%TD*%
%TO.C,J33*%
X146800000Y-86000000D03*
%TD*%
%TO.C,J34*%
X146800000Y-89000000D03*
%TD*%
%TO.C,J42*%
X77200000Y-89000000D03*
%TD*%
%TO.C,J43*%
X77200000Y-86000000D03*
%TD*%
%TO.C,J44*%
X77200000Y-83000000D03*
%TD*%
D20*
%TO.C,H1*%
X132000000Y-86000000D03*
%TD*%
%TO.C,H2*%
X92000000Y-86000000D03*
%TD*%
M02*
