%TF.GenerationSoftware,KiCad,Pcbnew,(5.1.10-1-10_14)*%
%TF.CreationDate,2022-10-05T19:31:58+02:00*%
%TF.ProjectId,MTX2959,4d545832-3935-4392-9e6b-696361645f70,1.0*%
%TF.SameCoordinates,Original*%
%TF.FileFunction,Copper,L1,Top*%
%TF.FilePolarity,Positive*%
%FSLAX46Y46*%
G04 Gerber Fmt 4.6, Leading zero omitted, Abs format (unit mm)*
G04 Created by KiCad (PCBNEW (5.1.10-1-10_14)) date 2022-10-05 19:31:58*
%MOMM*%
%LPD*%
G01*
G04 APERTURE LIST*
%TA.AperFunction,NonConductor*%
%ADD10C,0.150000*%
%TD*%
%TA.AperFunction,SMDPad,CuDef*%
%ADD11R,1.150000X1.100000*%
%TD*%
%TA.AperFunction,SMDPad,CuDef*%
%ADD12R,1.250000X0.300000*%
%TD*%
%TA.AperFunction,SMDPad,CuDef*%
%ADD13C,0.150000*%
%TD*%
%TA.AperFunction,SMDPad,CuDef*%
%ADD14R,1.500000X1.000000*%
%TD*%
%TA.AperFunction,SMDPad,CuDef*%
%ADD15R,1.500000X1.300000*%
%TD*%
%TA.AperFunction,SMDPad,CuDef*%
%ADD16R,2.000000X2.500000*%
%TD*%
%TA.AperFunction,SMDPad,CuDef*%
%ADD17R,2.500000X2.500000*%
%TD*%
%TA.AperFunction,SMDPad,CuDef*%
%ADD18R,2.500000X2.000000*%
%TD*%
%TA.AperFunction,ComponentPad*%
%ADD19C,5.000000*%
%TD*%
%TA.AperFunction,ViaPad*%
%ADD20C,0.800000*%
%TD*%
%TA.AperFunction,Conductor*%
%ADD21C,0.250000*%
%TD*%
%TA.AperFunction,Conductor*%
%ADD22C,1.000000*%
%TD*%
%TA.AperFunction,Conductor*%
%ADD23C,0.300000*%
%TD*%
%TA.AperFunction,Conductor*%
%ADD24C,0.500000*%
%TD*%
%TA.AperFunction,Conductor*%
%ADD25C,0.600000*%
%TD*%
G04 APERTURE END LIST*
D10*
X97014285Y-87202380D02*
X97014285Y-86202380D01*
X97347619Y-86916666D01*
X97680952Y-86202380D01*
X97680952Y-87202380D01*
X98157142Y-87202380D02*
X98157142Y-86535714D01*
X98157142Y-86202380D02*
X98109523Y-86250000D01*
X98157142Y-86297619D01*
X98204761Y-86250000D01*
X98157142Y-86202380D01*
X98157142Y-86297619D01*
X98633333Y-86535714D02*
X98633333Y-87202380D01*
X98633333Y-86630952D02*
X98680952Y-86583333D01*
X98776190Y-86535714D01*
X98919047Y-86535714D01*
X99014285Y-86583333D01*
X99061904Y-86678571D01*
X99061904Y-87202380D01*
X99538095Y-87202380D02*
X99538095Y-86535714D01*
X99538095Y-86202380D02*
X99490476Y-86250000D01*
X99538095Y-86297619D01*
X99585714Y-86250000D01*
X99538095Y-86202380D01*
X99538095Y-86297619D01*
X99871428Y-86535714D02*
X100252380Y-86535714D01*
X100014285Y-86202380D02*
X100014285Y-87059523D01*
X100061904Y-87154761D01*
X100157142Y-87202380D01*
X100252380Y-87202380D01*
X100585714Y-87202380D02*
X100585714Y-86535714D01*
X100585714Y-86726190D02*
X100633333Y-86630952D01*
X100680952Y-86583333D01*
X100776190Y-86535714D01*
X100871428Y-86535714D01*
X101204761Y-87202380D02*
X101204761Y-86535714D01*
X101204761Y-86202380D02*
X101157142Y-86250000D01*
X101204761Y-86297619D01*
X101252380Y-86250000D01*
X101204761Y-86202380D01*
X101204761Y-86297619D01*
X101585714Y-87202380D02*
X102109523Y-86535714D01*
X101585714Y-86535714D02*
X102109523Y-87202380D01*
X103204761Y-86297619D02*
X103252380Y-86250000D01*
X103347619Y-86202380D01*
X103585714Y-86202380D01*
X103680952Y-86250000D01*
X103728571Y-86297619D01*
X103776190Y-86392857D01*
X103776190Y-86488095D01*
X103728571Y-86630952D01*
X103157142Y-87202380D01*
X103776190Y-87202380D01*
X104252380Y-87202380D02*
X104442857Y-87202380D01*
X104538095Y-87154761D01*
X104585714Y-87107142D01*
X104680952Y-86964285D01*
X104728571Y-86773809D01*
X104728571Y-86392857D01*
X104680952Y-86297619D01*
X104633333Y-86250000D01*
X104538095Y-86202380D01*
X104347619Y-86202380D01*
X104252380Y-86250000D01*
X104204761Y-86297619D01*
X104157142Y-86392857D01*
X104157142Y-86630952D01*
X104204761Y-86726190D01*
X104252380Y-86773809D01*
X104347619Y-86821428D01*
X104538095Y-86821428D01*
X104633333Y-86773809D01*
X104680952Y-86726190D01*
X104728571Y-86630952D01*
X105633333Y-86202380D02*
X105157142Y-86202380D01*
X105109523Y-86678571D01*
X105157142Y-86630952D01*
X105252380Y-86583333D01*
X105490476Y-86583333D01*
X105585714Y-86630952D01*
X105633333Y-86678571D01*
X105680952Y-86773809D01*
X105680952Y-87011904D01*
X105633333Y-87107142D01*
X105585714Y-87154761D01*
X105490476Y-87202380D01*
X105252380Y-87202380D01*
X105157142Y-87154761D01*
X105109523Y-87107142D01*
X106157142Y-87202380D02*
X106347619Y-87202380D01*
X106442857Y-87154761D01*
X106490476Y-87107142D01*
X106585714Y-86964285D01*
X106633333Y-86773809D01*
X106633333Y-86392857D01*
X106585714Y-86297619D01*
X106538095Y-86250000D01*
X106442857Y-86202380D01*
X106252380Y-86202380D01*
X106157142Y-86250000D01*
X106109523Y-86297619D01*
X106061904Y-86392857D01*
X106061904Y-86630952D01*
X106109523Y-86726190D01*
X106157142Y-86773809D01*
X106252380Y-86821428D01*
X106442857Y-86821428D01*
X106538095Y-86773809D01*
X106585714Y-86726190D01*
X106633333Y-86630952D01*
X96466666Y-88852380D02*
X96466666Y-88185714D01*
X96466666Y-88280952D02*
X96514285Y-88233333D01*
X96609523Y-88185714D01*
X96752380Y-88185714D01*
X96847619Y-88233333D01*
X96895238Y-88328571D01*
X96895238Y-88852380D01*
X96895238Y-88328571D02*
X96942857Y-88233333D01*
X97038095Y-88185714D01*
X97180952Y-88185714D01*
X97276190Y-88233333D01*
X97323809Y-88328571D01*
X97323809Y-88852380D01*
X97657142Y-88185714D02*
X98038095Y-88185714D01*
X97800000Y-87852380D02*
X97800000Y-88709523D01*
X97847619Y-88804761D01*
X97942857Y-88852380D01*
X98038095Y-88852380D01*
X98800000Y-88804761D02*
X98704761Y-88852380D01*
X98514285Y-88852380D01*
X98419047Y-88804761D01*
X98371428Y-88757142D01*
X98323809Y-88661904D01*
X98323809Y-88376190D01*
X98371428Y-88280952D01*
X98419047Y-88233333D01*
X98514285Y-88185714D01*
X98704761Y-88185714D01*
X98800000Y-88233333D01*
X99752380Y-88852380D02*
X99180952Y-88852380D01*
X99466666Y-88852380D02*
X99466666Y-87852380D01*
X99371428Y-87995238D01*
X99276190Y-88090476D01*
X99180952Y-88138095D01*
X100609523Y-88185714D02*
X100609523Y-88852380D01*
X100371428Y-87804761D02*
X100133333Y-88519047D01*
X100752380Y-88519047D01*
X101133333Y-88471428D02*
X101895238Y-88471428D01*
X102371428Y-88852380D02*
X102371428Y-87852380D01*
X102752380Y-87852380D01*
X102847619Y-87900000D01*
X102895238Y-87947619D01*
X102942857Y-88042857D01*
X102942857Y-88185714D01*
X102895238Y-88280952D01*
X102847619Y-88328571D01*
X102752380Y-88376190D01*
X102371428Y-88376190D01*
X103514285Y-88852380D02*
X103419047Y-88804761D01*
X103371428Y-88709523D01*
X103371428Y-87852380D01*
X104323809Y-88852380D02*
X104323809Y-88328571D01*
X104276190Y-88233333D01*
X104180952Y-88185714D01*
X103990476Y-88185714D01*
X103895238Y-88233333D01*
X104323809Y-88804761D02*
X104228571Y-88852380D01*
X103990476Y-88852380D01*
X103895238Y-88804761D01*
X103847619Y-88709523D01*
X103847619Y-88614285D01*
X103895238Y-88519047D01*
X103990476Y-88471428D01*
X104228571Y-88471428D01*
X104323809Y-88423809D01*
X104657142Y-88185714D02*
X105038095Y-88185714D01*
X104800000Y-87852380D02*
X104800000Y-88709523D01*
X104847619Y-88804761D01*
X104942857Y-88852380D01*
X105038095Y-88852380D01*
X105371428Y-88852380D02*
X105371428Y-88185714D01*
X105371428Y-87852380D02*
X105323809Y-87900000D01*
X105371428Y-87947619D01*
X105419047Y-87900000D01*
X105371428Y-87852380D01*
X105371428Y-87947619D01*
X105847619Y-88185714D02*
X105847619Y-88852380D01*
X105847619Y-88280952D02*
X105895238Y-88233333D01*
X105990476Y-88185714D01*
X106133333Y-88185714D01*
X106228571Y-88233333D01*
X106276190Y-88328571D01*
X106276190Y-88852380D01*
X107133333Y-88804761D02*
X107038095Y-88852380D01*
X106847619Y-88852380D01*
X106752380Y-88804761D01*
X106704761Y-88709523D01*
X106704761Y-88328571D01*
X106752380Y-88233333D01*
X106847619Y-88185714D01*
X107038095Y-88185714D01*
X107133333Y-88233333D01*
X107180952Y-88328571D01*
X107180952Y-88423809D01*
X106704761Y-88519047D01*
X94966666Y-89597619D02*
X95014285Y-89550000D01*
X95109523Y-89502380D01*
X95347619Y-89502380D01*
X95442857Y-89550000D01*
X95490476Y-89597619D01*
X95538095Y-89692857D01*
X95538095Y-89788095D01*
X95490476Y-89930952D01*
X94919047Y-90502380D01*
X95538095Y-90502380D01*
X96157142Y-89502380D02*
X96252380Y-89502380D01*
X96347619Y-89550000D01*
X96395238Y-89597619D01*
X96442857Y-89692857D01*
X96490476Y-89883333D01*
X96490476Y-90121428D01*
X96442857Y-90311904D01*
X96395238Y-90407142D01*
X96347619Y-90454761D01*
X96252380Y-90502380D01*
X96157142Y-90502380D01*
X96061904Y-90454761D01*
X96014285Y-90407142D01*
X95966666Y-90311904D01*
X95919047Y-90121428D01*
X95919047Y-89883333D01*
X95966666Y-89692857D01*
X96014285Y-89597619D01*
X96061904Y-89550000D01*
X96157142Y-89502380D01*
X96871428Y-89597619D02*
X96919047Y-89550000D01*
X97014285Y-89502380D01*
X97252380Y-89502380D01*
X97347619Y-89550000D01*
X97395238Y-89597619D01*
X97442857Y-89692857D01*
X97442857Y-89788095D01*
X97395238Y-89930952D01*
X96823809Y-90502380D01*
X97442857Y-90502380D01*
X97823809Y-89597619D02*
X97871428Y-89550000D01*
X97966666Y-89502380D01*
X98204761Y-89502380D01*
X98300000Y-89550000D01*
X98347619Y-89597619D01*
X98395238Y-89692857D01*
X98395238Y-89788095D01*
X98347619Y-89930952D01*
X97776190Y-90502380D01*
X98395238Y-90502380D01*
X99442857Y-89502380D02*
X100014285Y-89502380D01*
X99728571Y-90502380D02*
X99728571Y-89502380D01*
X100347619Y-90502380D02*
X100347619Y-89502380D01*
X100680952Y-90216666D01*
X101014285Y-89502380D01*
X101014285Y-90502380D01*
X101680952Y-89502380D02*
X101871428Y-89502380D01*
X101966666Y-89550000D01*
X102061904Y-89645238D01*
X102109523Y-89835714D01*
X102109523Y-90169047D01*
X102061904Y-90359523D01*
X101966666Y-90454761D01*
X101871428Y-90502380D01*
X101680952Y-90502380D01*
X101585714Y-90454761D01*
X101490476Y-90359523D01*
X101442857Y-90169047D01*
X101442857Y-89835714D01*
X101490476Y-89645238D01*
X101585714Y-89550000D01*
X101680952Y-89502380D01*
X103871428Y-90502380D02*
X103538095Y-90026190D01*
X103300000Y-90502380D02*
X103300000Y-89502380D01*
X103680952Y-89502380D01*
X103776190Y-89550000D01*
X103823809Y-89597619D01*
X103871428Y-89692857D01*
X103871428Y-89835714D01*
X103823809Y-89930952D01*
X103776190Y-89978571D01*
X103680952Y-90026190D01*
X103300000Y-90026190D01*
X104680952Y-90454761D02*
X104585714Y-90502380D01*
X104395238Y-90502380D01*
X104300000Y-90454761D01*
X104252380Y-90359523D01*
X104252380Y-89978571D01*
X104300000Y-89883333D01*
X104395238Y-89835714D01*
X104585714Y-89835714D01*
X104680952Y-89883333D01*
X104728571Y-89978571D01*
X104728571Y-90073809D01*
X104252380Y-90169047D01*
X105061904Y-89835714D02*
X105300000Y-90502380D01*
X105538095Y-89835714D01*
X107204761Y-90502380D02*
X106633333Y-90502380D01*
X106919047Y-90502380D02*
X106919047Y-89502380D01*
X106823809Y-89645238D01*
X106728571Y-89740476D01*
X106633333Y-89788095D01*
X107633333Y-90407142D02*
X107680952Y-90454761D01*
X107633333Y-90502380D01*
X107585714Y-90454761D01*
X107633333Y-90407142D01*
X107633333Y-90502380D01*
X108300000Y-89502380D02*
X108395238Y-89502380D01*
X108490476Y-89550000D01*
X108538095Y-89597619D01*
X108585714Y-89692857D01*
X108633333Y-89883333D01*
X108633333Y-90121428D01*
X108585714Y-90311904D01*
X108538095Y-90407142D01*
X108490476Y-90454761D01*
X108395238Y-90502380D01*
X108300000Y-90502380D01*
X108204761Y-90454761D01*
X108157142Y-90407142D01*
X108109523Y-90311904D01*
X108061904Y-90121428D01*
X108061904Y-89883333D01*
X108109523Y-89692857D01*
X108157142Y-89597619D01*
X108204761Y-89550000D01*
X108300000Y-89502380D01*
D11*
%TO.P,J1,16*%
%TO.N,N/C*%
X112795000Y-81500000D03*
%TO.P,J1,15*%
X112795000Y-90500000D03*
D12*
%TO.P,J1,14*%
%TO.N,G1*%
X115905000Y-89250000D03*
%TO.P,J1,13*%
X115905000Y-88750000D03*
%TO.P,J1,12*%
%TO.N,LR*%
X115905000Y-88250000D03*
%TO.P,J1,11*%
%TO.N,N/C*%
X115905000Y-87750000D03*
%TO.P,J1,10*%
X115905000Y-87250000D03*
%TO.P,J1,9*%
%TO.N,GND*%
X115905000Y-86750000D03*
%TO.P,J1,8*%
%TO.N,M1*%
X115905000Y-86250000D03*
%TO.P,J1,7*%
%TO.N,M2*%
X115905000Y-85750000D03*
%TO.P,J1,6*%
%TO.N,GND*%
X115905000Y-85250000D03*
%TO.P,J1,5*%
%TO.N,N/C*%
X115905000Y-84750000D03*
%TO.P,J1,4*%
X115905000Y-84250000D03*
%TO.P,J1,3*%
%TO.N,LV*%
X115905000Y-83750000D03*
%TO.P,J1,2*%
%TO.N,G2*%
X115905000Y-83250000D03*
%TO.P,J1,1*%
X115900000Y-82750000D03*
%TD*%
%TA.AperFunction,SMDPad,CuDef*%
D13*
%TO.P,JP1,1*%
%TO.N,Net-(JP1-Pad1)*%
G36*
X136850000Y-84650000D02*
G01*
X136850000Y-84100000D01*
X136850602Y-84100000D01*
X136850602Y-84075466D01*
X136855412Y-84026635D01*
X136864984Y-83978510D01*
X136879228Y-83931555D01*
X136898005Y-83886222D01*
X136921136Y-83842949D01*
X136948396Y-83802150D01*
X136979524Y-83764221D01*
X137014221Y-83729524D01*
X137052150Y-83698396D01*
X137092949Y-83671136D01*
X137136222Y-83648005D01*
X137181555Y-83629228D01*
X137228510Y-83614984D01*
X137276635Y-83605412D01*
X137325466Y-83600602D01*
X137350000Y-83600602D01*
X137350000Y-83600000D01*
X137850000Y-83600000D01*
X137850000Y-83600602D01*
X137874534Y-83600602D01*
X137923365Y-83605412D01*
X137971490Y-83614984D01*
X138018445Y-83629228D01*
X138063778Y-83648005D01*
X138107051Y-83671136D01*
X138147850Y-83698396D01*
X138185779Y-83729524D01*
X138220476Y-83764221D01*
X138251604Y-83802150D01*
X138278864Y-83842949D01*
X138301995Y-83886222D01*
X138320772Y-83931555D01*
X138335016Y-83978510D01*
X138344588Y-84026635D01*
X138349398Y-84075466D01*
X138349398Y-84100000D01*
X138350000Y-84100000D01*
X138350000Y-84650000D01*
X136850000Y-84650000D01*
G37*
%TD.AperFunction*%
%TA.AperFunction,SMDPad,CuDef*%
%TO.P,JP1,3*%
%TO.N,Net-(J31-Pad1)*%
G36*
X138349398Y-86700000D02*
G01*
X138349398Y-86724534D01*
X138344588Y-86773365D01*
X138335016Y-86821490D01*
X138320772Y-86868445D01*
X138301995Y-86913778D01*
X138278864Y-86957051D01*
X138251604Y-86997850D01*
X138220476Y-87035779D01*
X138185779Y-87070476D01*
X138147850Y-87101604D01*
X138107051Y-87128864D01*
X138063778Y-87151995D01*
X138018445Y-87170772D01*
X137971490Y-87185016D01*
X137923365Y-87194588D01*
X137874534Y-87199398D01*
X137850000Y-87199398D01*
X137850000Y-87200000D01*
X137350000Y-87200000D01*
X137350000Y-87199398D01*
X137325466Y-87199398D01*
X137276635Y-87194588D01*
X137228510Y-87185016D01*
X137181555Y-87170772D01*
X137136222Y-87151995D01*
X137092949Y-87128864D01*
X137052150Y-87101604D01*
X137014221Y-87070476D01*
X136979524Y-87035779D01*
X136948396Y-86997850D01*
X136921136Y-86957051D01*
X136898005Y-86913778D01*
X136879228Y-86868445D01*
X136864984Y-86821490D01*
X136855412Y-86773365D01*
X136850602Y-86724534D01*
X136850602Y-86700000D01*
X136850000Y-86700000D01*
X136850000Y-86150000D01*
X138350000Y-86150000D01*
X138350000Y-86700000D01*
X138349398Y-86700000D01*
G37*
%TD.AperFunction*%
D14*
%TO.P,JP1,2*%
%TO.N,LV*%
X137600000Y-85400000D03*
%TD*%
%TO.P,JP2,2*%
%TO.N,LR*%
X86400000Y-86600000D03*
%TA.AperFunction,SMDPad,CuDef*%
D13*
%TO.P,JP2,3*%
%TO.N,Net-(JP2-Pad3)*%
G36*
X87149398Y-87900000D02*
G01*
X87149398Y-87924534D01*
X87144588Y-87973365D01*
X87135016Y-88021490D01*
X87120772Y-88068445D01*
X87101995Y-88113778D01*
X87078864Y-88157051D01*
X87051604Y-88197850D01*
X87020476Y-88235779D01*
X86985779Y-88270476D01*
X86947850Y-88301604D01*
X86907051Y-88328864D01*
X86863778Y-88351995D01*
X86818445Y-88370772D01*
X86771490Y-88385016D01*
X86723365Y-88394588D01*
X86674534Y-88399398D01*
X86650000Y-88399398D01*
X86650000Y-88400000D01*
X86150000Y-88400000D01*
X86150000Y-88399398D01*
X86125466Y-88399398D01*
X86076635Y-88394588D01*
X86028510Y-88385016D01*
X85981555Y-88370772D01*
X85936222Y-88351995D01*
X85892949Y-88328864D01*
X85852150Y-88301604D01*
X85814221Y-88270476D01*
X85779524Y-88235779D01*
X85748396Y-88197850D01*
X85721136Y-88157051D01*
X85698005Y-88113778D01*
X85679228Y-88068445D01*
X85664984Y-88021490D01*
X85655412Y-87973365D01*
X85650602Y-87924534D01*
X85650602Y-87900000D01*
X85650000Y-87900000D01*
X85650000Y-87350000D01*
X87150000Y-87350000D01*
X87150000Y-87900000D01*
X87149398Y-87900000D01*
G37*
%TD.AperFunction*%
%TA.AperFunction,SMDPad,CuDef*%
%TO.P,JP2,1*%
%TO.N,Net-(J41-Pad1)*%
G36*
X85650000Y-85850000D02*
G01*
X85650000Y-85300000D01*
X85650602Y-85300000D01*
X85650602Y-85275466D01*
X85655412Y-85226635D01*
X85664984Y-85178510D01*
X85679228Y-85131555D01*
X85698005Y-85086222D01*
X85721136Y-85042949D01*
X85748396Y-85002150D01*
X85779524Y-84964221D01*
X85814221Y-84929524D01*
X85852150Y-84898396D01*
X85892949Y-84871136D01*
X85936222Y-84848005D01*
X85981555Y-84829228D01*
X86028510Y-84814984D01*
X86076635Y-84805412D01*
X86125466Y-84800602D01*
X86150000Y-84800602D01*
X86150000Y-84800000D01*
X86650000Y-84800000D01*
X86650000Y-84800602D01*
X86674534Y-84800602D01*
X86723365Y-84805412D01*
X86771490Y-84814984D01*
X86818445Y-84829228D01*
X86863778Y-84848005D01*
X86907051Y-84871136D01*
X86947850Y-84898396D01*
X86985779Y-84929524D01*
X87020476Y-84964221D01*
X87051604Y-85002150D01*
X87078864Y-85042949D01*
X87101995Y-85086222D01*
X87120772Y-85131555D01*
X87135016Y-85178510D01*
X87144588Y-85226635D01*
X87149398Y-85275466D01*
X87149398Y-85300000D01*
X87150000Y-85300000D01*
X87150000Y-85850000D01*
X85650000Y-85850000D01*
G37*
%TD.AperFunction*%
%TD*%
D15*
%TO.P,R1,2*%
%TO.N,Net-(J32-Pad1)*%
X143150000Y-83000000D03*
%TO.P,R1,1*%
%TO.N,Net-(JP1-Pad1)*%
X140450000Y-83000000D03*
%TD*%
%TO.P,R2,1*%
%TO.N,LR*%
X140450000Y-89000000D03*
%TO.P,R2,2*%
%TO.N,Net-(J34-Pad1)*%
X143150000Y-89000000D03*
%TD*%
%TO.P,R3,2*%
%TO.N,Net-(J42-Pad1)*%
X80650000Y-89000000D03*
%TO.P,R3,1*%
%TO.N,Net-(JP2-Pad3)*%
X83350000Y-89000000D03*
%TD*%
%TO.P,R4,1*%
%TO.N,LV*%
X83350000Y-83000000D03*
%TO.P,R4,2*%
%TO.N,Net-(J44-Pad1)*%
X80650000Y-83000000D03*
%TD*%
D16*
%TO.P,J11,1*%
%TO.N,G1*%
X125200000Y-82600000D03*
%TD*%
%TO.P,J12,1*%
%TO.N,G1*%
X128200000Y-82600000D03*
%TD*%
%TO.P,J13,1*%
%TO.N,G2*%
X119200000Y-82600000D03*
%TD*%
%TO.P,J14,1*%
%TO.N,G2*%
X122200000Y-82600000D03*
%TD*%
D17*
%TO.P,J21,1*%
%TO.N,M1*%
X121400000Y-87000000D03*
%TD*%
%TO.P,J22,1*%
%TO.N,M2*%
X125200000Y-87000000D03*
%TD*%
D18*
%TO.P,J32,1*%
%TO.N,Net-(J32-Pad1)*%
X146800000Y-83000000D03*
%TD*%
%TO.P,J33,1*%
%TO.N,G2*%
X146800000Y-86000000D03*
%TD*%
%TO.P,J34,1*%
%TO.N,Net-(J34-Pad1)*%
X146800000Y-89000000D03*
%TD*%
%TO.P,J42,1*%
%TO.N,Net-(J42-Pad1)*%
X77200000Y-89000000D03*
%TD*%
%TO.P,J43,1*%
%TO.N,G2*%
X77200000Y-86000000D03*
%TD*%
%TO.P,J44,1*%
%TO.N,Net-(J44-Pad1)*%
X77200000Y-83000000D03*
%TD*%
D19*
%TO.P,H1,1*%
%TO.N,G2*%
X132000000Y-86000000D03*
%TD*%
%TO.P,H2,1*%
%TO.N,G2*%
X92000000Y-86000000D03*
%TD*%
D20*
%TO.N,G2*%
X94100000Y-86000000D03*
X89900000Y-86000000D03*
X129900000Y-86000000D03*
X134100000Y-86000000D03*
X122200000Y-82600000D03*
X119200000Y-82600000D03*
X82000000Y-84800000D03*
X141800000Y-84800000D03*
%TO.N,LV*%
X118000000Y-84599999D03*
X120000002Y-90400000D03*
%TO.N,Net-(J31-Pad1)*%
X137600000Y-86700000D03*
%TO.N,Net-(J41-Pad1)*%
X86400000Y-85400000D03*
%TD*%
D21*
%TO.N,G2*%
X115905000Y-82755000D02*
X115900000Y-82750000D01*
X115900000Y-83245000D02*
X115905000Y-83250000D01*
D22*
X119200000Y-82600000D02*
X122200000Y-82600000D01*
D23*
X119050000Y-82750000D02*
X119200000Y-82600000D01*
X115900000Y-82750000D02*
X119050000Y-82750000D01*
X115905000Y-83250000D02*
X116950000Y-83250000D01*
X116950000Y-83250000D02*
X117200000Y-83000000D01*
X118800000Y-83000000D02*
X119200000Y-82600000D01*
X117200000Y-83000000D02*
X118800000Y-83000000D01*
D24*
X143000000Y-86000000D02*
X141800000Y-84800000D01*
X146800000Y-86000000D02*
X143000000Y-86000000D01*
X80800000Y-86000000D02*
X82000000Y-84800000D01*
X77200000Y-86000000D02*
X80800000Y-86000000D01*
D22*
%TO.N,G1*%
X125200000Y-82600000D02*
X128200000Y-82600000D01*
D23*
X115905000Y-88750000D02*
X115905000Y-89250000D01*
D25*
X127000000Y-89200000D02*
X118800000Y-89200000D01*
X128200000Y-88000000D02*
X127000000Y-89200000D01*
X118600000Y-89000000D02*
X117400000Y-89000000D01*
X118800000Y-89200000D02*
X118600000Y-89000000D01*
X128200000Y-82600000D02*
X128200000Y-88000000D01*
D23*
X117150000Y-88750000D02*
X117400000Y-89000000D01*
X115905000Y-88750000D02*
X117150000Y-88750000D01*
X117150000Y-89250000D02*
X117400000Y-89000000D01*
X115905000Y-89250000D02*
X117150000Y-89250000D01*
D21*
%TO.N,LR*%
X115850000Y-88250000D02*
X115825001Y-88225001D01*
X115905000Y-88250000D02*
X115850000Y-88250000D01*
D23*
X115905000Y-88250000D02*
X114750000Y-88250000D01*
X114400000Y-90800000D02*
X115000000Y-91400000D01*
X139400000Y-91400000D02*
X140450000Y-90350000D01*
X140450000Y-90350000D02*
X140450000Y-89000000D01*
X114400000Y-88600000D02*
X114400000Y-90800000D01*
X115000000Y-91400000D02*
X139400000Y-91400000D01*
X114750000Y-88250000D02*
X114400000Y-88600000D01*
X87625000Y-86600000D02*
X86400000Y-86600000D01*
X88400000Y-85825000D02*
X87625000Y-86600000D01*
X88400000Y-83200000D02*
X88400000Y-85825000D01*
X89800000Y-81800000D02*
X88400000Y-83200000D01*
X97646440Y-81800000D02*
X89800000Y-81800000D01*
X110900000Y-84400000D02*
X100246440Y-84400000D01*
X100246440Y-84400000D02*
X97646440Y-81800000D01*
X114750000Y-88250000D02*
X110900000Y-84400000D01*
%TO.N,GND*%
X114400000Y-85600000D02*
X114400000Y-86400000D01*
X114750000Y-86750000D02*
X115905000Y-86750000D01*
X114400000Y-86400000D02*
X114750000Y-86750000D01*
X114750000Y-85250000D02*
X114400000Y-85600000D01*
X115905000Y-85250000D02*
X114750000Y-85250000D01*
%TO.N,M1*%
X115905000Y-86250000D02*
X118650000Y-86250000D01*
X118650000Y-86250000D02*
X119400000Y-87000000D01*
X119400000Y-87000000D02*
X121400000Y-87000000D01*
D21*
%TO.N,M2*%
X115950000Y-85750000D02*
X115974999Y-85774999D01*
X115905000Y-85750000D02*
X115950000Y-85750000D01*
D23*
X124200000Y-84800000D02*
X125200000Y-85800000D01*
X119549992Y-84800000D02*
X124200000Y-84800000D01*
X118599992Y-85750000D02*
X119549992Y-84800000D01*
X125200000Y-85800000D02*
X125200000Y-87000000D01*
X115905000Y-85750000D02*
X118599992Y-85750000D01*
D21*
%TO.N,LV*%
X115850000Y-83750000D02*
X115825001Y-83774999D01*
X115905000Y-83750000D02*
X115850000Y-83750000D01*
D23*
X117150001Y-83750000D02*
X118000000Y-84599999D01*
X115905000Y-83750000D02*
X117150001Y-83750000D01*
X135600000Y-86200000D02*
X136400000Y-85400000D01*
X133200000Y-90400000D02*
X135600000Y-88000000D01*
X136400000Y-85400000D02*
X137600000Y-85400000D01*
X135600000Y-88000000D02*
X135600000Y-86200000D01*
X120000002Y-90400000D02*
X133200000Y-90400000D01*
X100550000Y-83750000D02*
X115905000Y-83750000D01*
X83350000Y-81850000D02*
X84000000Y-81200000D01*
X98000000Y-81200000D02*
X100550000Y-83750000D01*
X84000000Y-81200000D02*
X98000000Y-81200000D01*
X83350000Y-83000000D02*
X83350000Y-81850000D01*
D24*
%TO.N,Net-(J32-Pad1)*%
X143150000Y-83000000D02*
X146800000Y-83000000D01*
%TO.N,Net-(J34-Pad1)*%
X143150000Y-89000000D02*
X146800000Y-89000000D01*
%TO.N,Net-(J42-Pad1)*%
X77200000Y-89000000D02*
X80650000Y-89000000D01*
%TO.N,Net-(J44-Pad1)*%
X77200000Y-83000000D02*
X80650000Y-83000000D01*
%TO.N,Net-(JP1-Pad1)*%
X138700000Y-83000000D02*
X137600000Y-84100000D01*
X140450000Y-83000000D02*
X138700000Y-83000000D01*
%TO.N,Net-(JP2-Pad3)*%
X85300000Y-89000000D02*
X86400000Y-87900000D01*
X83350000Y-89000000D02*
X85300000Y-89000000D01*
%TD*%
M02*
